<svg xmlns="http://www.w3.org/2000/svg" viewBox="0 0 32 32">
  <defs>
    <!-- Background Gradient (AXIS Farm deep campo green) -->
    <linearGradient id="bgGrad" x1="0%" y1="0%" x2="100%" y2="100%">
      <stop offset="0%" stop-color="#0f2b1e" />
      <stop offset="100%" stop-color="#04130c" />
    </linearGradient>
    <!-- Harvest Gold Gradient -->
    <linearGradient id="goldGrad" x1="0%" y1="0%" x2="100%" y2="100%">
      <stop offset="0%" stop-color="#f3e098" />
      <stop offset="50%" stop-color="#c4ad7f" />
      <stop offset="100%" stop-color="#a98e5b" />
    </linearGradient>
  </defs>

  <!-- Base rounded background -->
  <rect width="32" height="32" rx="7" fill="url(#bgGrad)" />

  <!-- Stylized wheat blade -->
  <path d="M16 6 C20 10 21 17 17 24 C15.5 24 14.5 24 13 24 C15 18 15 12 16 6 Z" fill="url(#goldGrad)" />
  <path d="M16 10 C13.5 11.5 12 13 11.5 15.5" stroke="url(#goldGrad)" stroke-width="1.4" fill="none" stroke-linecap="round" />
  <path d="M16 15 C18.5 16 20 17.5 20.5 20" stroke="url(#goldGrad)" stroke-width="1.4" fill="none" stroke-linecap="round" />
  <path d="M16 20 C13.8 20.8 12.3 22 11.7 24" stroke="url(#goldGrad)" stroke-width="1.4" fill="none" stroke-linecap="round" />

  <!-- Sleek green leaf accent -->
  <path d="M16 6 C20 10 21 16 17 19 C15 16 14.5 11 16 6 Z" fill="#3daa78" opacity="0.35" />
</svg>
