<svg xmlns="http://www.w3.org/2000/svg" viewBox="0 0 32 32">
  <defs>
    <linearGradient id="sunGrad" x1="0%" y1="0%" x2="100%" y2="100%">
      <stop offset="0%" stop-color="#f3e098" />
      <stop offset="100%" stop-color="#c9952e" />
    </linearGradient>
  </defs>

  <!-- Sky background -->
  <rect width="32" height="32" rx="8" fill="#faf8f4" />

  <!-- Sun, peeking from behind the tractor -->
  <circle cx="22" cy="8.5" r="3.1" fill="url(#sunGrad)" />

  <!-- Field rows, receding toward the horizon -->
  <path d="M-1 21 C8 18.3 24 18.3 33 21 L33 33 L-1 33 Z" fill="#8aa87a" />
  <path d="M-1 25 C8 22.3 24 22.3 33 25 L33 33 L-1 33 Z" fill="#2f6b4a" />
  <path d="M-1 28.5 C8 26.4 24 26.4 33 28.5 L33 33 L-1 33 Z" fill="#c4ad7f" />

  <!-- Tractor silhouette -->
  <rect x="9" y="6" width="1.2" height="3.6" rx="0.6" fill="#1f4d3a" />
  <rect x="8.5" y="9.5" width="5.2" height="5.6" rx="1" fill="#1f4d3a" />
  <path d="M13.7 15 L18.2 16.3 L18.2 17.6 L13.7 17.6 Z" fill="#1f4d3a" />
  <circle cx="11.6" cy="17.6" r="3" fill="#1f4d3a" />
  <circle cx="11.6" cy="17.6" r="1.1" fill="#faf8f4" />
  <circle cx="18.4" cy="18.6" r="1.8" fill="#1f4d3a" />
  <circle cx="18.4" cy="18.6" r="0.7" fill="#faf8f4" />
</svg>
